<svg width="20" height="20" viewBox="0 0 20 20" fill="none" xmlns="http://www.w3.org/2000/svg">
<mask id="mask0_722_1046" style="mask-type:alpha" maskUnits="userSpaceOnUse" x="0" y="0" width="20" height="20">
<path d="M10 20C15.5228 20 20 15.5228 20 10C20 4.47715 15.5228 0 10 0C4.47715 0 0 4.47715 0 10C0 15.5228 4.47715 20 10 20Z" fill="#1DA1F2"/>
</mask>
<g mask="url(#mask0_722_1046)">
<path d="M7.87446 14.7757C12.3085 14.7757 14.7335 11.1022 14.7335 7.91668C14.7335 7.81218 14.7335 7.70868 14.7265 7.60518C15.1982 7.26302 15.6053 6.83978 15.929 6.35518C15.4889 6.54992 15.0223 6.67783 14.5445 6.73468C15.048 6.4334 15.4247 5.95926 15.6045 5.40068C15.1314 5.68164 14.6138 5.87965 14.074 5.98618C13.7107 5.59874 13.2298 5.34202 12.7057 5.25584C12.1817 5.16967 11.6438 5.25887 11.1756 5.5096C10.7074 5.76033 10.3351 6.15857 10.1164 6.64253C9.89767 7.12648 9.84479 7.6691 9.96595 8.18618C9.00743 8.1382 8.06971 7.88918 7.21366 7.4553C6.35761 7.02142 5.60237 6.41237 4.99696 5.66768C4.68867 6.19834 4.59421 6.82654 4.7328 7.42439C4.8714 8.02224 5.23263 8.5448 5.74296 8.88569C5.36035 8.87451 4.98602 8.77163 4.65145 8.58569C4.65145 8.59569 4.65145 8.60569 4.65145 8.61619C4.65181 9.17256 4.84451 9.71169 5.19688 10.1423C5.54926 10.5728 6.03964 10.8683 6.58495 10.9787C6.22992 11.0757 5.85735 11.0899 5.49595 11.0202C5.64991 11.4988 5.94949 11.9174 6.35287 12.2175C6.75625 12.5176 7.24328 12.6843 7.74595 12.6942C6.89299 13.365 5.83913 13.7294 4.75396 13.7287C4.56181 13.7288 4.36982 13.7178 4.17896 13.6957C5.28138 14.4037 6.56427 14.7795 7.87446 14.7782" fill="white"/>
<rect x="-0.895508" y="-0.895523" width="21.791" height="21.791" fill="url(#paint0_linear_722_1046)"/>
</g>
<path d="M7.87446 14.7757C12.3085 14.7757 14.7335 11.1022 14.7335 7.91668C14.7335 7.81218 14.7335 7.70868 14.7265 7.60518C15.1982 7.26302 15.6053 6.83978 15.929 6.35518C15.4889 6.54992 15.0223 6.67783 14.5445 6.73468C15.048 6.4334 15.4247 5.95926 15.6045 5.40068C15.1314 5.68164 14.6138 5.87965 14.074 5.98618C13.7107 5.59874 13.2298 5.34202 12.7057 5.25584C12.1817 5.16967 11.6438 5.25887 11.1756 5.5096C10.7074 5.76033 10.3351 6.15857 10.1164 6.64253C9.89767 7.12648 9.84479 7.6691 9.96595 8.18618C9.00743 8.1382 8.06971 7.88918 7.21366 7.4553C6.35761 7.02142 5.60237 6.41237 4.99696 5.66768C4.68867 6.19834 4.59421 6.82654 4.7328 7.42439C4.8714 8.02224 5.23263 8.5448 5.74296 8.88569C5.36035 8.87451 4.98602 8.77163 4.65145 8.58569C4.65145 8.59569 4.65145 8.60569 4.65145 8.61619C4.65181 9.17256 4.84451 9.71169 5.19688 10.1423C5.54926 10.5728 6.03964 10.8683 6.58495 10.9787C6.22992 11.0757 5.85735 11.0899 5.49595 11.0202C5.64991 11.4988 5.94949 11.9174 6.35287 12.2175C6.75625 12.5176 7.24328 12.6843 7.74595 12.6942C6.89299 13.365 5.83913 13.7294 4.75396 13.7287C4.56181 13.7288 4.36982 13.7178 4.17896 13.6957C5.28138 14.4037 6.56427 14.7795 7.87446 14.7782" fill="#3B2694"/>
<defs>
<linearGradient id="paint0_linear_722_1046" x1="10" y1="20.8955" x2="10" y2="-0.895523" gradientUnits="userSpaceOnUse">
<stop stop-color="#FF5051"/>
<stop offset="1" stop-color="#FFD287"/>
</linearGradient>
</defs>
</svg>
