<svg width="120" height="116" viewBox="0 0 120 116" fill="none" xmlns="http://www.w3.org/2000/svg">
<mask id="path-1-inside-1_715_472" fill="white">
<path fill-rule="evenodd" clip-rule="evenodd" d="M25.2 0L13.6 11.6L2 23.2V92.8L13.6 104.4L25.2 116H60.5H94.8L106.4 104.4L118 92.8V23.2L106.4 11.6L94.8 0H60.5H25.2Z"/>
</mask>
<path fill-rule="evenodd" clip-rule="evenodd" d="M25.2 0L13.6 11.6L2 23.2V92.8L13.6 104.4L25.2 116H60.5H94.8L106.4 104.4L118 92.8V23.2L106.4 11.6L94.8 0H60.5H25.2Z" fill="#0DF3BF"/>
<path d="M25.2 0L23.7858 -1.41422L24.3716 -2H25.2V0ZM2 23.2H0V22.3716L0.585787 21.7858L2 23.2ZM2 92.8L0.585787 94.2142L0 93.6284V92.8H2ZM25.2 116V118H24.3716L23.7858 117.414L25.2 116ZM94.8 116L96.2142 117.414L95.6284 118H94.8V116ZM118 92.8H120V93.6284L119.414 94.2142L118 92.8ZM118 23.2L119.414 21.7858L120 22.3716V23.2H118ZM94.8 0V-2H95.6284L96.2142 -1.41422L94.8 0ZM12.1858 10.1858L23.7858 -1.41422L26.6142 1.41422L15.0142 13.0142L12.1858 10.1858ZM0.585787 21.7858L12.1858 10.1858L15.0142 13.0142L3.41421 24.6142L0.585787 21.7858ZM0 92.8V23.2H4V92.8H0ZM12.1858 105.814L0.585787 94.2142L3.41421 91.3858L15.0142 102.986L12.1858 105.814ZM23.7858 117.414L12.1858 105.814L15.0142 102.986L26.6142 114.586L23.7858 117.414ZM60.5 118H25.2V114H60.5V118ZM94.8 118H60.5V114H94.8V118ZM107.814 105.814L96.2142 117.414L93.3858 114.586L104.986 102.986L107.814 105.814ZM119.414 94.2142L107.814 105.814L104.986 102.986L116.586 91.3858L119.414 94.2142ZM120 23.2V92.8H116V23.2H120ZM107.814 10.1858L119.414 21.7858L116.586 24.6142L104.986 13.0142L107.814 10.1858ZM96.2142 -1.41422L107.814 10.1858L104.986 13.0142L93.3858 1.41422L96.2142 -1.41422ZM60.5 -2H94.8V2H60.5V-2ZM25.2 -2H60.5V2H25.2V-2Z" fill="#3B2694" mask="url(#path-1-inside-1_715_472)"/>
<path d="M79 114V77.5V76.5L116 66V92L94 114H79Z" fill="#0EE7B5"/>
<path d="M42 114V78.5V77.5L4 66.5V92L26 114H42Z" fill="#0EE7B5"/>
<rect x="43" y="77" width="36" height="37" fill="#23FFCD"/>
<path fill-rule="evenodd" clip-rule="evenodd" d="M2 65L42.5 76.5H61H78.5L119 65V58L80 66L61 65V67H43L2 58V65Z" fill="#0DF3BF"/>
<path d="M42.5 76.5V77.5H42.3608L42.2268 77.462L42.5 76.5ZM2 65L1.72685 65.962L1 65.7556V65H2ZM78.5 76.5L78.7732 77.462L78.6392 77.5H78.5V76.5ZM119 65H120V65.7556L119.273 65.962L119 65ZM119 58L118.799 57.0204L120 56.774V58H119ZM80 66L80.2009 66.9796L80.0754 67.0054L79.9474 66.9986L80 66ZM61 65H60V63.946L61.0526 64.0014L61 65ZM61 67H62V68H61V67ZM43 67V68H42.8915L42.7856 67.9767L43 67ZM2 58H1V56.7567L2.21441 57.0233L2 58ZM42.2268 77.462L1.72685 65.962L2.27315 64.038L42.7732 75.538L42.2268 77.462ZM61 77.5H42.5V75.5H61V77.5ZM78.5 77.5H61V75.5H78.5V77.5ZM119.273 65.962L78.7732 77.462L78.2268 75.538L118.727 64.038L119.273 65.962ZM120 58V65H118V58H120ZM79.7991 65.0204L118.799 57.0204L119.201 58.9796L80.2009 66.9796L79.7991 65.0204ZM61.0526 64.0014L80.0526 65.0014L79.9474 66.9986L60.9474 65.9986L61.0526 64.0014ZM60 67V65H62V67H60ZM43 66H61V68H43V66ZM2.21441 57.0233L43.2144 66.0233L42.7856 67.9767L1.78559 58.9767L2.21441 57.0233ZM1 65V58H3V65H1Z" fill="#3B2694"/>
<path d="M92 109L111.5 89.5" stroke="#20FECB" stroke-width="2" stroke-linecap="round"/>
<path d="M14 65L37 72" stroke="#23FFCD" stroke-width="1.5" stroke-linecap="round"/>
<path d="M93.5 6.5L99.5 12.5L93 23.5L89 20H82L84 6L93.5 6.5Z" fill="#23FFCD"/>
<path d="M27 6.5L21 12.5L27.5 23.5L31.5 20H38.5L36.5 6L27 6.5Z" fill="#23FFCD"/>
<path d="M7 26.16V42.5L31.5 20H88.5L113 42.5V26.16L92.2818 6H27.7182L7 26.16Z" stroke="#3B2694" stroke-width="2"/>
<path d="M7 42.7284V59L43.5 66.5L78.3091 66L113 58.5V42.7284L88.5 20H31.5L7 42.7284Z" stroke="#3B2694" stroke-width="2"/>
<path d="M9 43.5V57.5L44 65L78 64L111 57V43.5L88 22H32L9 43.5Z" fill="#0EE7B5" stroke="#0EE7B5"/>
<path d="M43 76V115" stroke="#3B2694" stroke-width="2"/>
<path d="M113 55.5L119 53V69L113 71V55.5Z" fill="#3B2694"/>
<path d="M114 56.9444L118 55V67.4444L114 69V56.9444Z" fill="#20FECB"/>
<path d="M5 56.9444L1 55V67.4444L5 69V56.9444Z" fill="#20FECB" stroke="#3B2694"/>
<line x1="3" y1="59.5" x2="3" y2="65.5" stroke="#3B2694" stroke-linecap="round"/>
<line x1="116" y1="59.5" x2="116" y2="65.5" stroke="#3B2694" stroke-linecap="round"/>
<path d="M77.5669 60.2548H43.2117H41.1083L42.5105 50.4766L42.9375 48.9171C43.9494 45.2209 47.1151 42.5169 50.9241 42.0953L58.1758 40.2893C58.9395 40.0991 59.7373 40.0919 60.5044 40.2682L68.4522 42.0953C71.8465 42.518 74.6506 44.9464 75.5538 48.2455L76.1646 50.4766L77.5669 60.2548Z" fill="#5437CC" stroke="#3B2694"/>
<path d="M43.1338 60.9299L42.4586 49.4522L24.9045 52.828L7.90263 54.6497C7.5624 54.6861 7.5322 55.1701 7.86734 55.2391C12.673 56.2296 25.3874 58.8371 29.6306 59.5796C34.9039 60.5025 43.1338 60.9299 43.1338 60.9299Z" fill="#3B2694"/>
<path d="M74.8662 60.9299L75.5414 49.4522L93.7707 52.828L110.122 54.6449C110.462 54.6826 110.49 55.1655 110.156 55.2344C105.368 56.2212 92.6193 58.8359 88.3694 59.5796C83.0961 60.5025 74.8662 60.9299 74.8662 60.9299Z" fill="#5437CC" stroke="#3B2694"/>
<path d="M32.3931 59.0197L27.4409 62.7847C27.0892 63.0521 27.2317 63.6109 27.6686 63.6771L43 66L63.2969 64L68 58H35.4192C34.3262 58 33.2633 58.3582 32.3931 59.0197Z" fill="#422B9F" stroke="#3B2694"/>
<path d="M81.2665 55.0394L65.7727 58.2857L62 63.5L77.5 65L90.3182 63.2857L91 58.2857L89.9985 57.3864C87.6279 55.2577 84.3848 54.386 81.2665 55.0394Z" fill="#422B9F" stroke="#3B2694"/>
<path d="M41.1083 54.8535V52.1529L16.5395 55.3856C16.4188 55.4015 16.4259 55.5784 16.5475 55.5846L28.0039 56.1698C28.4453 56.1924 28.8878 56.1563 29.3198 56.0625L36.9376 54.4086C37.6367 54.2569 38.3602 54.2569 39.0592 54.4086L41.1083 54.8535Z" fill="#3B2694"/>
<path d="M41.1083 54.8535V52.1529L16.5395 55.3856C16.4188 55.4015 16.4259 55.5784 16.5475 55.5846L28.0039 56.1698C28.4453 56.1924 28.8878 56.1563 29.3198 56.0625L36.9376 54.4086C37.6367 54.2569 38.3602 54.2569 39.0592 54.4086L41.1083 54.8535Z" fill="#5437CC"/>
<path d="M62.4468 51.3982C62.6794 49.8158 63.516 48.3186 65.0325 47.8101C65.7367 47.5739 66.5623 47.4022 67.4395 47.4296C67.9962 47.4471 68.6562 47.6488 69.2716 47.8989C70.6291 48.4506 71.5258 49.7046 71.939 51.1105C72.3895 52.6431 71.2405 54.1783 69.6431 54.1783H67.4395H64.8482C63.3672 54.1783 62.2314 52.8635 62.4468 51.3982Z" fill="#684AE3"/>
<path d="M56.2284 51.3982C55.9958 49.8158 55.1591 48.3186 53.6427 47.8101C52.9384 47.5739 52.1128 47.4022 51.2357 47.4296C50.679 47.4471 50.0189 47.6488 49.4036 47.8989C48.0461 48.4506 47.1494 49.7046 46.7362 51.1105C46.2857 52.6431 47.4346 54.1783 49.0321 54.1783H51.2357H53.8269C55.308 54.1783 56.4437 52.8635 56.2284 51.3982Z" fill="#684AE3"/>
<path d="M57.3121 53.7732C57.3121 53.7732 58.2123 53.5032 59.1126 53.5032C60.0128 53.5032 60.913 53.7732 60.913 53.7732" stroke="#3B2694" stroke-linecap="round"/>
<path d="M63.0725 51.6648C63.2752 50.2465 64.0112 48.8952 65.368 48.4351C65.9766 48.2286 66.6863 48.0802 67.4395 48.1045C67.9153 48.1198 68.4775 48.2934 69.0051 48.5112C70.2221 49.0136 71.0148 50.1513 71.3766 51.4172C71.772 52.8009 70.7331 54.1783 69.294 54.1783H67.4395H65.2524C63.9123 54.1783 62.883 52.9914 63.0725 51.6648Z" fill="#3B2694"/>
<rect x="65.414" y="49.4522" width="1.35032" height="1.35032" rx="0.675159" fill="#CDC4F2"/>
<rect x="64.7388" y="50.8026" width="0.675159" height="0.675159" rx="0.33758" fill="#CDC4F2"/>
<path d="M53.2612 44.7261C53.2612 44.7261 55.5001 44.4368 56.637 44.7261C57.551 44.9587 58.4584 45.3187 58.6325 45.3891C58.6523 45.3971 58.6725 45.3988 58.6932 45.3936C58.926 45.336 60.4271 44.9643 61.3631 44.7261C62.4999 44.4368 64.0637 44.7261 64.0637 44.7261" stroke="#3B2694" stroke-linecap="round"/>
<path d="M55.6027 51.664C55.4 50.2457 54.664 48.8944 53.3071 48.4342C52.6985 48.2278 51.9888 48.0794 51.2357 48.1037C50.7598 48.119 50.1977 48.2926 49.67 48.5104C48.4531 49.0128 47.6603 50.1505 47.2986 51.4164C46.9032 52.8001 47.9421 54.1775 49.3812 54.1775H51.2357H53.4228C54.7628 54.1775 55.7922 52.9906 55.6027 51.664Z" fill="#3B2694"/>
<rect x="49.8854" y="49.4522" width="1.35032" height="1.35032" rx="0.675159" fill="#CDC4F2"/>
<rect x="49.2102" y="50.8026" width="0.675159" height="0.675159" rx="0.33758" fill="#CDC4F2"/>
<line x1="58.4872" y1="47.9268" x2="58.4872" y2="50.9777" stroke="#3B2694" stroke-linecap="round"/>
<path d="M103.5 54L90.5 57.5L91 59L110 54.5L103.5 54Z" fill="#3B2694" stroke="#3B2694" stroke-linecap="round"/>
<rect x="43.5" y="63.5" width="36" height="7" rx="1.5" fill="#0EE7B5" stroke="#3B2694"/>
<rect x="48.5" y="65.5" width="3" height="3" rx="0.5" fill="#23FFCD" stroke="#3B2694"/>
<rect x="60.5" y="65.5" width="3" height="3" rx="0.5" fill="#23FFCD" stroke="#3B2694"/>
<rect x="72.5" y="65.5" width="3" height="3" rx="0.5" fill="#23FFCD" stroke="#3B2694"/>
<line x1="0.5" y1="57" x2="0.5" y2="65" stroke="#3B2694"/>
<line x1="78" y1="77" x2="78" y2="114" stroke="#3B2694" stroke-width="2"/>
</svg>
